<svg xmlns="http://www.w3.org/2000/svg" viewBox="0 0 186.52 21.53"><defs><style>.cls-1{fill:#0600bf;stroke:#0600bf;stroke-miterlimit:10;stroke-width:2.02px;}</style></defs><g id="レイヤー_2" data-name="レイヤー 2"><g id="レイヤー_2-2" data-name="レイヤー 2"><path class="cls-1" d="M13.61,18.76,2.89,3.77v15H1V2.25H3.79l10.74,15V2.25h1.86V18.76Z"/><path class="cls-1" d="M59.51,4V9.34H70V11H59.51v6H70.6v1.7H57.65V2.23h13V4Z"/><path class="cls-1" d="M127,18.78h-2.53L120.54,3.93l-3.93,14.85h-2.53L110.36,2.25h1.93l3.12,14.93,4-14.93h2.33l4,14.93,3.14-14.93h1.91Z"/><path class="cls-1" d="M179.65,18.88h-3.06c-4.58,0-5.94-1.22-5.94-4.7h1.94c0,2.38.81,3,4.07,3h3c3.19,0,3.89-.88,3.89-3v-.3c0-1.84-.19-2.8-5.19-2.8h-1.14c-5.15,0-6.46-.88-6.46-4.37V6.33c0-2.52,1.35-4.22,5.93-4.22h2.86c4.13,0,5.57,1.26,5.57,4.36h-2c0-1.9-.7-2.66-3.59-2.66h-2.82c-3,0-4,.82-4,2.58v.4c0,2.18.62,2.67,5.07,2.67h1c5.55,0,6.74,1.12,6.74,4.38v.34C185.51,17.32,184.36,18.88,179.65,18.88Z"/></g></g></svg>