<svg xmlns="http://www.w3.org/2000/svg" viewBox="0 0 313.98 22.38"><defs><style>.cls-1{fill:#0600bf;stroke:#0600bf;stroke-miterlimit:10;stroke-width:2.02px;}</style></defs><g id="レイヤー_2" data-name="レイヤー 2"><g id="レイヤー_2-2" data-name="レイヤー 2"><path class="cls-1" d="M11.54,21.29H8.76C2.81,21.29,1,19.05,1,12.69v-3C1,3.09,3.06,1.13,8.76,1.13h2.67c5.78,0,7.63,1.77,7.63,6.4H16.75c0-3.28-1.44-4.29-5.32-4.29H8.76c-3.93,0-5.49,1-5.49,6.57V12.6c0,5.14,1.28,6.57,5.49,6.57h2.78c4,0,5.34-1.2,5.34-4.46h2.31C19.19,19.44,17.24,21.29,11.54,21.29Z"/><path class="cls-1" d="M61,21.26H57c-5.5,0-7.45-2-7.45-7.68V8.85c0-5.49,2-7.7,7.45-7.7h4c5.49,0,7.42,2.21,7.42,7.7v4.73C68.42,19.22,66.47,21.26,61,21.26ZM66.21,8.85c0-4.22-1.57-5.61-5.26-5.61H57c-3.7,0-5.24,1.39-5.24,5.61v4.73c0,4.25,1.54,5.64,5.24,5.64H61c3.69,0,5.26-1.39,5.26-5.64Z"/><path class="cls-1" d="M114.57,21.12l-12.87-18v18H99.44V1.32h3.34l12.89,17.93V1.32h2.23v19.8Z"/><path class="cls-1" d="M158.79,3.38V21.17H156.5V3.38h-8.06V1.32h18.1V3.38Z"/><path class="cls-1" d="M214.56,21.1l-1.82-4.49H200.13l-1.82,4.49h-2.42L204,1.32h4.95L217,21.1ZM207.42,3.38h-2L201,14.57h10.94Z"/><path class="cls-1" d="M257.32,21.29h-2.77c-6,0-7.76-2.24-7.76-8.6v-3c0-6.63,2.06-8.59,7.76-8.59h2.67c5.77,0,7.62,1.77,7.62,6.4h-2.31c0-3.28-1.44-4.29-5.31-4.29h-2.67c-3.93,0-5.5,1-5.5,6.57V12.6c0,5.14,1.28,6.57,5.5,6.57h2.77c4,0,5.34-1.2,5.34-4.46H265C265,19.44,263,21.29,257.32,21.29Z"/><path class="cls-1" d="M305.21,3.38V21.17h-2.28V3.38h-8.07V1.32H313V3.38Z"/></g></g></svg>